<?xml version="1.0" encoding="UTF-8"?>
<svg xmlns="http://www.w3.org/2000/svg" xmlns:xlink="http://www.w3.org/1999/xlink" viewBox="0 0 30 30" width="30px" height="30px">
<g id="surface144715024">
<rect x="0" y="0" width="30" height="30" style="fill:rgb(13.333334%,13.333334%,13.333334%);fill-opacity:1;stroke:none;"/>
<path style="fill-rule:nonzero;fill:rgb(100%,98.039216%,98.039216%);fill-opacity:1;stroke-width:10;stroke-linecap:butt;stroke-linejoin:round;stroke:rgb(100%,98.039216%,98.039216%);stroke-opacity:1;stroke-miterlimit:10;" d="M 221.866667 51.2 L 221.866667 204.8 C 221.866667 214.233333 214.233333 221.866667 204.8 221.866667 L 51.2 221.866667 C 41.766667 221.866667 34.133333 214.233333 34.133333 204.8 L 34.133333 51.2 C 34.133333 41.766667 41.766667 34.133333 51.2 34.133333 L 204.8 34.133333 C 214.233333 34.133333 221.866667 41.766667 221.866667 51.2 Z M 221.866667 51.2 " transform="matrix(0.117188,0,0,0.117188,0,0)"/>
<path style=" stroke:none;fill-rule:nonzero;fill:rgb(13.333334%,13.333334%,13.333334%);fill-opacity:1;" d="M 24 4 L 6 4 C 4.894531 4 4 4.894531 4 6 L 4 24 C 4 25.105469 4.894531 26 6 26 L 24 26 C 25.105469 26 26 25.105469 26 24 L 26 6 C 26 4.894531 25.105469 4 24 4 Z M 22.6875 13.472656 C 22.558594 13.484375 22.429688 13.492188 22.296875 13.492188 C 20.800781 13.492188 19.488281 12.726562 18.722656 11.5625 C 18.722656 14.613281 18.722656 18.082031 18.722656 18.140625 C 18.722656 20.824219 16.546875 23 13.859375 23 C 11.175781 23 9 20.824219 9 18.140625 C 9 15.453125 11.175781 13.277344 13.859375 13.277344 C 13.964844 13.277344 14.0625 13.285156 14.160156 13.292969 L 14.160156 15.6875 C 14.0625 15.675781 13.964844 15.660156 13.859375 15.660156 C 12.492188 15.660156 11.378906 16.769531 11.378906 18.140625 C 11.378906 19.511719 12.488281 20.621094 13.859375 20.621094 C 15.230469 20.621094 16.441406 19.539062 16.441406 18.171875 C 16.441406 18.117188 16.464844 7 16.464844 7 L 18.753906 7 C 18.96875 9.046875 20.621094 10.664062 22.6875 10.8125 Z M 22.6875 13.472656 "/>
</g>
</svg>
