<svg width="264" height="31" viewBox="0 0 264 31" fill="none" xmlns="http://www.w3.org/2000/svg">
<path d="M7.54261 30H0.951705L10.9943 0.90909H18.9205L28.9489 30H22.358L15.071 7.55682H14.8438L7.54261 30ZM7.13068 18.5653H22.6989V23.3665H7.13068V18.5653ZM56.7827 0.90909V30H51.4702L38.8139 11.6903H38.6009V30H32.4503V0.90909H37.848L50.4048 19.2045H50.6605V0.90909H56.7827ZM77.6456 9.27557C77.532 8.12973 77.0443 7.23958 76.1825 6.60511C75.3208 5.97064 74.1513 5.65341 72.674 5.65341C71.6702 5.65341 70.8227 5.79545 70.1314 6.07955C69.4401 6.35417 68.9098 6.73769 68.5405 7.23011C68.1806 7.72254 68.0007 8.28125 68.0007 8.90625C67.9818 9.42708 68.0907 9.88163 68.3274 10.2699C68.5736 10.6581 68.9098 10.9943 69.3359 11.2784C69.7621 11.553 70.2545 11.7945 70.8132 12.0028C71.3719 12.2017 71.9685 12.3722 72.603 12.5142L75.2166 13.1392C76.4856 13.4233 77.6503 13.8021 78.7109 14.2756C79.7715 14.7491 80.6901 15.3314 81.4666 16.0227C82.2431 16.714 82.8445 17.5284 83.2706 18.4659C83.7062 19.4034 83.9287 20.4782 83.9382 21.6903C83.9287 23.4706 83.4742 25.0142 82.5746 26.321C81.6844 27.6184 80.3965 28.6269 78.7109 29.3466C77.0348 30.0568 75.013 30.4119 72.6456 30.4119C70.2971 30.4119 68.2517 30.0521 66.5092 29.3324C64.7763 28.6127 63.4221 27.5473 62.4467 26.1364C61.4808 24.7159 60.9742 22.9593 60.9268 20.8665H66.8786C66.9448 21.8419 67.2242 22.6562 67.7166 23.3097C68.2185 23.9536 68.8861 24.4413 69.7195 24.7727C70.5623 25.0947 71.514 25.2557 72.5746 25.2557C73.6162 25.2557 74.5206 25.1042 75.2876 24.8011C76.0642 24.4981 76.6655 24.0767 77.0916 23.5369C77.5178 22.9972 77.7308 22.3769 77.7308 21.6761C77.7308 21.0227 77.5367 20.4735 77.1484 20.0284C76.7696 19.5833 76.2109 19.2045 75.4723 18.892C74.7431 18.5795 73.8482 18.2955 72.7876 18.0398L69.62 17.2443C67.1674 16.6477 65.2308 15.715 63.8104 14.446C62.3899 13.1771 61.6844 11.4678 61.6939 9.31818C61.6844 7.55682 62.1532 6.01799 63.1001 4.7017C64.0566 3.38542 65.3681 2.35795 67.0348 1.61932C68.7015 0.880681 70.5954 0.511363 72.7166 0.511363C74.8757 0.511363 76.7602 0.880681 78.37 1.61932C79.9893 2.35795 81.2488 3.38542 82.1484 4.7017C83.0481 6.01799 83.5121 7.54261 83.5405 9.27557H77.6456ZM92.4254 30H85.8345L95.8771 0.90909H103.803L113.832 30H107.241L99.9538 7.55682H99.7266L92.4254 30ZM92.0135 18.5653H107.582V23.3665H92.0135V18.5653ZM131.605 30H125.014L135.057 0.90909H142.983L153.011 30H146.42L139.134 7.55682H138.906L131.605 30ZM131.193 18.5653H146.761V23.3665H131.193V18.5653ZM156.513 30V0.90909H162.663V13.7358H163.047L173.516 0.90909H180.888L170.092 13.9347L181.016 30H173.658L165.689 18.0398L162.663 21.733V30H156.513ZM182.386 0.90909H189.276L195.909 13.4375H196.193L202.827 0.90909H209.716L199.105 19.7159V30H192.997V19.7159L182.386 0.90909ZM213.075 30V0.90909H232.678V5.98011H219.226V12.9119H231.669V17.983H219.226V24.929H232.734V30H213.075ZM242.582 30H235.991L246.033 0.90909H253.96L263.988 30H257.397L250.11 7.55682H249.883L242.582 30ZM242.17 18.5653H257.738V23.3665H242.17V18.5653Z" fill="#E9E9E9"/>
</svg>
