<svg width="259" height="60" viewBox="0 0 259 60" fill="none" xmlns="http://www.w3.org/2000/svg">
<g clip-path="url(#clip0_19_28)">
<path d="M12.4204 52.7351L6.12168 54.6757L5.8639 24.3481L13.4387 22.0144L32.8778 46.4324L26.579 48.373L12.012 29.4024L11.7948 29.4694L12.4204 52.7351ZM8.153 42.0979L23.0311 37.5141L24.6576 42.0313L9.7795 46.6151L8.153 42.0979Z" fill="#E9E9E9"/>
<path d="M50.1677 13.0277L57.676 41.133L52.4971 42.3168L35.4333 27.4479L35.2256 27.4953L39.9513 45.1846L33.9554 46.5552L26.4471 18.45L31.7091 17.2471L48.6722 32.1245L48.9215 32.0676L44.1994 14.392L50.1677 13.0277Z" fill="#E9E9E9"/>
<path d="M72.784 18.0212C72.467 16.9112 71.8261 16.1103 70.8612 15.6183C69.8963 15.1264 68.684 14.9938 67.2242 15.2206C66.2323 15.3747 65.4202 15.6446 64.7879 16.0302C64.1539 16.4066 63.6984 16.8654 63.4214 17.4066C63.1538 17.9463 63.0758 18.5237 63.1875 19.1386C63.2618 19.654 63.4507 20.0845 63.754 20.4301C64.0666 20.7743 64.4589 21.0535 64.9307 21.2676C65.4009 21.4724 65.9306 21.6344 66.5199 21.7536C67.1075 21.8634 67.7275 21.9396 68.3798 21.9819L71.0741 22.1956C72.3788 22.2803 73.5974 22.4741 74.73 22.7772C75.8627 23.0802 76.8744 23.5122 77.7652 24.0731C78.656 24.6341 79.3957 25.343 79.9843 26.2C80.5822 27.0556 80.9942 28.0789 81.2201 29.2701C81.5288 31.0232 81.3554 32.6117 80.6999 34.0356C80.0521 35.4488 78.9597 36.6388 77.4227 37.6057C75.8933 38.5618 73.9589 39.2217 71.6196 39.5851C69.2989 39.9457 67.2134 39.9057 65.3631 39.4651C63.5221 39.023 61.9937 38.1827 60.7778 36.9442C59.5695 35.6949 58.755 34.0443 58.3344 31.9924L64.2155 31.0787C64.4553 32.0282 64.8768 32.7866 65.4801 33.3539C66.0911 33.9104 66.838 34.2877 67.7206 34.4859C68.611 34.6733 69.5801 34.6856 70.6282 34.5227C71.6575 34.3628 72.524 34.0749 73.2279 33.659C73.941 33.2416 74.4599 32.7347 74.7846 32.1381C75.1092 31.5416 75.209 30.8986 75.0838 30.2091C74.967 29.5662 74.6771 29.0556 74.2139 28.6773C73.7601 28.2976 73.1403 28.0107 72.3546 27.8166C71.5782 27.6211 70.6432 27.479 69.5495 27.3902L66.2773 27.0939C63.7472 26.8835 61.6669 26.263 60.0366 25.2326C58.4063 24.2021 57.4037 22.6287 57.029 20.5122C56.705 18.7806 56.8933 17.1946 57.5938 15.7541C58.3038 14.3121 59.4162 13.0998 60.9311 12.1172C62.4461 11.1346 64.2516 10.4804 66.3476 10.1547C68.4811 9.82326 70.4092 9.89731 72.132 10.3769C73.8641 10.855 75.2922 11.6726 76.4163 12.8296C77.5404 13.9866 78.2713 15.4154 78.609 17.1161L72.784 18.0212Z" fill="#E9E9E9"/>
<path d="M90.7668 36.8572L84.199 37.4089L91.364 7.6165L99.2623 6.953L112.098 35.0652L105.53 35.617L96.0759 13.8912L95.8494 13.9102L90.7668 36.8572ZM89.239 25.5117L104.753 24.2085L105.222 28.9866L89.7081 30.2899L89.239 25.5117Z" fill="#E9E9E9"/>
<path d="M130.108 35.1463L123.519 35.0083L134.271 6.13637L142.195 6.30237L151.51 35.5946L144.92 35.4566L138.184 12.8675L137.957 12.8627L130.108 35.1463ZM129.976 23.7064L145.541 24.0325L145.423 28.8322L129.859 28.5061L129.976 23.7064Z" fill="#E9E9E9"/>
<path d="M152.702 35.9047L155.827 6.98214L161.952 7.5484L160.574 20.3009L160.955 20.3362L172.758 8.54752L180.099 9.22625L167.95 21.1825L177.101 38.1606L169.774 37.4832L163.124 24.8585L159.714 28.2517L158.826 36.4709L152.702 35.9047Z" fill="#E9E9E9"/>
<path d="M182.349 9.65116L189.148 10.7661L193.336 24.1441L193.616 24.1901L202.52 12.9592L209.319 14.0741L195.308 30.8275L193.372 40.9277L187.344 39.9392L189.28 29.839L182.349 9.65116Z" fill="#E9E9E9"/>
<path d="M204.979 43.0663L212.658 15.007L231.744 19.476L230.405 24.3672L217.308 21.3004L215.478 27.9864L227.594 30.8233L226.255 35.7145L214.14 32.8776L212.306 39.5773L225.459 42.6571L224.121 47.5482L204.979 43.0663Z" fill="#E9E9E9"/>
<path d="M232.625 49.9765L226.327 48.0359L245.779 23.6221L253.354 25.9558L253.083 56.2792L246.784 54.3386L247.423 31.0771L247.206 31.0101L232.625 49.9765ZM236.106 39.0967L250.984 43.6805L249.357 48.1977L234.479 43.614L236.106 39.0967Z" fill="#E9E9E9"/>
</g>
<defs>
<clipPath id="clip0_19_28">
<rect width="259" height="60" fill="white"/>
</clipPath>
</defs>
</svg>
